# xmcd
#
# Track frame offsets:
#	150
#	44125
#	63437
#	84098
#	104639
#	119197
#	141948
#	164309
#	183294
#	199580
#	222617
#	247263
#	273100
#
# Disc length: 3941 seconds
#
# Revision: 0
# Processed by: cddbd v1.5.2PL0 Copyright (c) Steve Scherf et al.
# Submitted via: EasyCDDAExtractor 16.0.6.1
#
DISCID=cd0f630d
DTITLE=Συλλογικός δίσκος - Ρεμπέτικο-Στ. Ξαρχάκος-Ν. Γκάτσος
DYEAR=1983
DGENRE=Ρεμπέτικη
TTITLE0=Δημητράτος Νίκος - Μάννα μου Ελλάς
TTITLE1=Δημητράτος Νίκος-χορωδία - Τα παιδιά της Άμυνας
TTITLE2=Δημητράτος Νίκος - Στης πίκρας τα ξερονήσια
TTITLE3=Τσίγγος Κώστας-χορωδία - Στου Θωμά
TTITLE4=Άνευ ερμηνευτού - Χασάπικο ''22''
TTITLE5=Λεονάρδου Σωτηρία-χορωδία - Καίγομαι, καίγομαι
TTITLE6=Χορωδία - Ιμιτλερίμ
TTITLE7=Λεονάρδου Σωτηρία-χορωδία - Μπουρνοβαλιά
TTITLE8=Τσίγγος Κώστας - Εμένα λόγια μη μού λες
TTITLE9=Τσίγγος Κώστας-ΜαντζόπουλοςΚ.-ΜαραγκόπουλοςΜ.-ΜπίνηςΤ. - Στην Αμφιάλη
TTITLE10=Μπίνης Τάκης-χορωδία - Το δίχτυ
TTITLE11=Μπίνης Τάκης-χορωδία - Στη Σαλαμίνα
TTITLE12=Ξαρχάκος Σταύρος - Το πρακτορείο
EXTD=
EXTT0=
EXTT1=
EXTT2=
EXTT3=
EXTT4=
EXTT5=
EXTT6=
EXTT7=
EXTT8=
EXTT9=
EXTT10=
EXTT11=
EXTT12=
PLAYORDER=
